# xmcd
#
# Track frame offsets: 
#        192
#        12076
#        22240
#        37552
#        48593
#        65594
#        75703
#        88245
#        101673
#        111761
#        124137
#        131809
#
# Disc length: 1990 seconds
#
# Revision: 2
# Processed by: cddbd v1.5.2PL0 Copyright (c) Steve Scherf et al.
# Submitted via: ExactAudioCopy v0.99pb5
#
DISCID=9e07c40c
DTITLE=Tim Wilson - Songs for the Musically Disturbed
DYEAR=1996
DGENRE=Comedy
TTITLE0=Lounge Lizard's Love
TTITLE1=Garth Brooks has Ruined My Life
TTITLE2=Ricky Tidwell's Momma
TTITLE3=Trailer Park Woman
TTITLE4=Low-Class Love Affair
TTITLE5=George is on My Mind( The George Song)
TTITLE6=Acid Country
TTITLE7=1st Baptist Bar and Grill
TTITLE8=He's My Brother-in-Law
TTITLE9=She Slept with Texas
TTITLE10=Clean Underwear
TTITLE11=Redneck 12 Days of Christmas
EXTD=
EXTT0=
EXTT1=
EXTT2=
EXTT3=
EXTT4=
EXTT5=
EXTT6=
EXTT7=
EXTT8=
EXTT9=
EXTT10=
EXTT11=
PLAYORDER=
